<?xml version="1.0" encoding="UTF-8"?>
<svg version="1.1" xmlns="http://www.w3.org/2000/svg" width="1024" height="1024">
<path d="M0 0 C0.69174316 0.08266113 1.38348633 0.16532227 2.09619141 0.25048828 C33.5056668 4.19663152 62.4126217 22.01171802 81.6875 46.8125 C91.45335097 60.32774018 98.55449908 74.89434737 102.875 91 C103.19827271 92.20209106 103.19827271 92.20209106 103.52807617 93.4284668 C104.61624482 97.71665398 105.24313261 101.53780155 105 106 C105.66 106 106.32 106 107 106 C106.96648437 104.9996875 106.93296875 103.999375 106.8984375 102.96875 C107.5135002 78.93399212 122.1363101 55.12271291 138 38 C138.80050781 37.11828125 139.60101562 36.2365625 140.42578125 35.328125 C160.96364391 13.68101608 190.66625481 0.46468481 220.4375 -0.5 C221.14970703 -0.55414062 221.86191406 -0.60828125 222.59570312 -0.6640625 C227.13017392 -0.77938056 229.57436138 0.05640313 233.03515625 3.03125 C234.37650571 4.33415262 235.69787232 5.65789824 237 7 C237.6592749 7.64775391 238.3185498 8.29550781 238.99780273 8.96289062 C241.69654028 11.62444278 244.34589682 14.33312136 247 17.0390625 C247.66 17.70679688 248.32 18.37453125 249 19.0625 C249.5775 19.65160156 250.155 20.24070312 250.75 20.84765625 C252.64569459 22.66107243 254.57821765 24.36444853 256.56871033 26.07069397 C261.29238347 30.19631057 265.72284531 34.5824013 270.15063477 39.02124023 C271.02813385 39.896987 271.90563293 40.77273376 272.8097229 41.67501831 C275.19375691 44.05542954 277.57555005 46.43803766 279.95617795 48.82185245 C282.46178625 51.33001321 284.96985711 53.83570969 287.4775238 56.34181213 C291.68627721 60.54875222 295.89293159 64.75778251 300.09838867 68.96801758 C304.94302475 73.81809465 309.79125242 78.66455908 314.64136082 83.50916332 C318.82434019 87.68758764 323.00534637 91.86797886 327.1847443 96.04998547 C329.67266128 98.5394521 332.16122658 101.02826058 334.65158272 103.5152874 C337.43019069 106.29043921 340.20465597 109.06971062 342.97875977 111.84936523 C343.79194168 112.66052292 344.6051236 113.4716806 345.44294739 114.30741882 C349.58438223 118.46414418 353.5456241 122.70605649 357.37495518 127.15120411 C359.86768752 129.9871587 362.52470531 132.64086197 365.21069336 135.29248047 C365.78717621 135.86589676 366.36365906 136.43931305 366.95761108 137.03010559 C368.19285978 138.25827178 369.42923949 139.48530133 370.66666985 140.71126938 C372.62331147 142.65035493 374.57624566 144.59310606 376.5282135 146.53689575 C382.07255519 152.05690991 387.62269889 157.57106447 393.17700195 163.08105469 C396.58681422 166.46416867 399.99180749 169.85207025 403.39383125 173.24301529 C404.68978957 174.53275339 405.98764372 175.82058934 407.28739738 177.10650253 C409.09447795 178.89448193 410.89542055 180.68843086 412.69506836 182.48388672 C413.23576462 183.01582138 413.77646088 183.54775604 414.33354187 184.09580994 C418 187.77210046 418 187.77210046 418 190 C416.78570313 189.80664062 415.57140625 189.61328125 414.3203125 189.4140625 C344.43752675 178.65807598 273.16732009 190.707767 215.046875 232.80078125 C211.95978275 235.11433638 208.97396587 237.54269769 206 240 C205.08734375 240.72316406 204.1746875 241.44632813 203.234375 242.19140625 C195.82536548 248.10802957 188.88237412 254.48736017 182 261 C181.319375 261.63808594 180.63875 262.27617188 179.9375 262.93359375 C175.69371117 267.0300288 172.00689629 271.52905979 168.31640625 276.125 C166.82504622 277.9759966 165.31338254 279.81090849 163.77734375 281.625 C146.58336122 302.00305337 133.3631007 326.25635605 123.81005859 351.06860352 C123 353 123 353 122 354 C119.55169574 354.08843793 117.13179401 354.11528752 114.68359375 354.09765625 C113.95253922 354.0962413 113.22148468 354.09482635 112.46827698 354.09336853 C110.12464368 354.08775408 107.78110461 354.07519922 105.4375 354.0625 C103.85221492 354.05748686 102.26692834 354.05292363 100.68164062 354.04882812 C96.7877239 354.03777997 92.89387795 354.02050572 89 354 C88.42209717 352.53566528 88.42209717 352.53566528 87.83251953 351.04174805 C78.19716872 326.72198572 66.28410618 304.55698963 50 284 C49.25363281 283.0409375 48.50726563 282.081875 47.73828125 281.09375 C5.6644515 228.20982351 -57.02813957 194.67571061 -123.87109375 186.55859375 C-130.91024688 185.76340839 -137.91846595 185.240052 -145 185 C-146.134375 184.95875 -147.26875 184.9175 -148.4375 184.875 C-167.71631834 184.53073539 -186.99426098 187.00224937 -206 190 C-204.41529013 186.14456201 -201.9581708 183.72305846 -199.01879883 180.80761719 C-198.25981796 180.05060768 -198.25981796 180.05060768 -197.48550415 179.27830505 C-195.81389787 177.61318124 -194.13542741 175.95515212 -192.45703125 174.296875 C-191.2878761 173.13399634 -190.11923866 171.97059697 -188.95109558 170.80670166 C-185.87224881 167.7411557 -182.78789539 164.68121585 -179.7019043 161.62286377 C-174.77971586 156.74376595 -169.8640921 151.85808016 -164.95191002 146.96891022 C-163.24451345 145.27163501 -161.53368657 143.57787693 -159.82246399 141.88446045 C-158.75757955 140.82641577 -157.69281039 139.76825504 -156.62817383 138.70996094 C-155.70821121 137.79825134 -154.7882486 136.88654175 -153.84040833 135.94720459 C-151.7309214 133.80629293 -149.75601629 131.58115051 -147.79812622 129.30110168 C-143.30542796 124.12237808 -138.45266197 119.31247668 -133.60180664 114.47241211 C-132.56922638 113.43847391 -131.53685834 112.40432373 -130.50468445 111.36997986 C-127.72185059 108.58261843 -124.93590057 105.79839184 -122.14921117 103.01488566 C-119.22064447 100.08886687 -116.29453677 97.16039059 -113.36802673 94.23231506 C-108.45491079 89.31738449 -103.53970096 84.40455534 -98.62329102 79.49291992 C-92.95524072 73.83031088 -87.29080163 68.16410863 -81.62822443 62.49602693 C-76.74916721 57.61241843 -71.86814733 52.730778 -66.98550886 47.85075003 C-64.07685629 44.94364916 -61.16886611 42.03589434 -58.26265144 39.12635612 C-55.5291534 36.38995 -52.79318353 33.6560387 -50.05536079 30.92395973 C-49.05645088 29.92636175 -48.0583717 28.92793107 -47.06122971 27.92856598 C-42.07086757 22.92811259 -37.05963444 18.03753628 -31.65073299 13.48879337 C-29.99444189 11.99498715 -28.61670544 10.43237822 -27.2265625 8.69140625 C-19.21505351 -1.17020522 -12.18269296 -1.66882593 0 0 Z " fill="#156EE3" transform="translate(403,669)"/>
<path d="M0 0 C3.85543799 1.58470987 6.27694154 4.0418292 9.19238281 6.98120117 C9.69705582 7.48718842 10.20172882 7.99317566 10.72169495 8.51449585 C12.38681876 10.18610213 14.04484788 11.86457259 15.703125 13.54296875 C16.86600366 14.7121239 18.02940303 15.88076134 19.19329834 17.04890442 C22.2588443 20.12775119 25.31878415 23.21210461 28.37713623 26.2980957 C33.25623405 31.22028414 38.14191984 36.1359079 43.03108978 41.04808998 C44.72836499 42.75548655 46.42212307 44.46631343 48.11553955 46.17753601 C49.17358423 47.24242045 50.23174496 48.30718961 51.29003906 49.37182617 C52.20174866 50.29178879 53.11345825 51.2117514 54.05279541 52.15959167 C56.19370707 54.2690786 58.41884949 56.24398371 60.69889832 58.20187378 C65.87762192 62.69457204 70.68752332 67.54733803 75.52758789 72.39819336 C76.56152609 73.43077362 77.59567627 74.46314166 78.63002014 75.49531555 C81.41738157 78.27814941 84.20160816 81.06409943 86.98511434 83.85078883 C89.91113313 86.77935553 92.83960941 89.70546323 95.76768494 92.63197327 C100.68261551 97.54508921 105.59544466 102.46029904 110.50708008 107.37670898 C116.16968912 113.04475928 121.83589137 118.70919837 127.50397307 124.37177557 C132.38758157 129.25083279 137.269222 134.13185267 142.14924997 139.01449114 C145.05635084 141.92314371 147.96410566 144.83113389 150.87364388 147.73734856 C153.61005 150.4708466 156.3439613 153.20681647 159.07604027 155.94463921 C160.07363825 156.94354912 161.07206893 157.9416283 162.07143402 158.93877029 C167.07188741 163.92913243 171.96246372 168.94036556 176.51120663 174.34926701 C178.00501285 176.00555811 179.56762178 177.38329456 181.30859375 178.7734375 C185.96263715 182.55435208 190.04797557 186.00546025 190.875 192.2109375 C191.0974594 196.86231535 190.63063794 201.3962434 190 206 C189.91733887 206.69174316 189.83467773 207.38348633 189.74951172 208.09619141 C185.80336848 239.5056668 167.98828198 268.4126217 143.1875 287.6875 C129.67225982 297.45335097 115.10565263 304.55449908 99 308.875 C97.79790894 309.19827271 97.79790894 309.19827271 96.5715332 309.52807617 C92.28334602 310.61624482 88.46219845 311.24313261 84 311 C84 311.66 84 312.32 84 313 C85.0003125 312.96648437 86.000625 312.93296875 87.03125 312.8984375 C111.06600788 313.5135002 134.87728709 328.1363101 152 344 C152.88171875 344.80050781 153.7634375 345.60101562 154.671875 346.42578125 C176.31898392 366.96364391 189.53531519 396.66625481 190.5 426.4375 C190.55414063 427.14970703 190.60828125 427.86191406 190.6640625 428.59570312 C190.77938056 433.13017392 189.94359687 435.57436138 186.96875 439.03515625 C185.66584738 440.37650571 184.34210176 441.69787232 183 443 C182.35224609 443.6592749 181.70449219 444.3185498 181.03710938 444.99780273 C178.37555722 447.69654028 175.66687864 450.34589682 172.9609375 453 C172.29320312 453.66 171.62546875 454.32 170.9375 455 C170.05384766 455.86625 170.05384766 455.86625 169.15234375 456.75 C167.33892757 458.64569459 165.63555147 460.57821765 163.92930603 462.56871033 C159.80368943 467.29238347 155.4175987 471.72284531 150.97875977 476.15063477 C149.66513962 477.46688339 149.66513962 477.46688339 148.32498169 478.8097229 C145.94457046 481.19375691 143.56196234 483.57555005 141.17814755 485.95617795 C138.66998679 488.46178625 136.16429031 490.96985711 133.65818787 493.4775238 C129.45124778 497.68627721 125.24221749 501.89293159 121.03198242 506.09838867 C116.18190535 510.94302475 111.33544092 515.79125242 106.49083668 520.64136082 C102.31241236 524.82434019 98.13202114 529.00534637 93.95001453 533.1847443 C91.4605479 535.67266128 88.97173942 538.16122658 86.4847126 540.65158272 C83.70956079 543.43019069 80.93028938 546.20465597 78.15063477 548.97875977 C77.33947708 549.79194168 76.5283194 550.6051236 75.69258118 551.44294739 C71.53585582 555.58438223 67.29394351 559.5456241 62.84879589 563.37495518 C60.0128413 565.86768752 57.35913803 568.52470531 54.70751953 571.21069336 C54.13410324 571.78717621 53.56068695 572.36365906 52.96989441 572.95761108 C51.74172822 574.19285978 50.51469867 575.42923949 49.28873062 576.66666985 C47.34964507 578.62331147 45.40689394 580.57624566 43.46310425 582.5282135 C37.94309009 588.07255519 32.42893553 593.62269889 26.91894531 599.17700195 C23.53583133 602.58681422 20.14792975 605.99180749 16.75698471 609.39383125 C15.46724661 610.68978957 14.17941066 611.98764372 12.89349747 613.28739738 C11.10551807 615.09447795 9.31156914 616.89542055 7.51611328 618.69506836 C6.98417862 619.23576462 6.45224396 619.77646088 5.90419006 620.33354187 C2.22789954 624 2.22789954 624 0 624 C0.19335938 622.78570313 0.38671875 621.57140625 0.5859375 620.3203125 C11.34192402 550.43752675 -0.707767 479.16732009 -42.80078125 421.046875 C-45.11433638 417.95978275 -47.54269769 414.97396587 -50 412 C-50.72316406 411.08734375 -51.44632812 410.1746875 -52.19140625 409.234375 C-58.10802957 401.82536548 -64.48736017 394.88237412 -71 388 C-71.63808594 387.319375 -72.27617188 386.63875 -72.93359375 385.9375 C-77.0300288 381.69371117 -81.52905979 378.00689629 -86.125 374.31640625 C-87.9759966 372.82504622 -89.81090849 371.31338254 -91.625 369.77734375 C-112.00305337 352.58336122 -136.25635605 339.3631007 -161.06860352 329.81005859 C-163 329 -163 329 -164 328 C-164.08843793 325.55169574 -164.11528752 323.13179401 -164.09765625 320.68359375 C-164.0962413 319.95253922 -164.09482635 319.22148468 -164.09336853 318.46827698 C-164.08775408 316.12464368 -164.07519922 313.78110461 -164.0625 311.4375 C-164.05748686 309.85221492 -164.05292363 308.26692834 -164.04882812 306.68164062 C-164.03777997 302.7877239 -164.02050572 298.89387795 -164 295 C-163.02377686 294.61473145 -162.04755371 294.22946289 -161.04174805 293.83251953 C-136.72198572 284.19716872 -114.55698963 272.28410618 -94 256 C-92.56140625 254.88044922 -92.56140625 254.88044922 -91.09375 253.73828125 C-38.20982351 211.6644515 -4.67571061 148.97186043 3.44140625 82.12890625 C4.23659161 75.08975312 4.759948 68.08153405 5 61 C5.04125 59.865625 5.0825 58.73125 5.125 57.5625 C5.46926461 38.28368166 2.99775063 19.00573902 0 0 Z " fill="#156EE3" transform="translate(164,202)"/>
<path d="M0 0 C-0.19335938 1.21429688 -0.38671875 2.42859375 -0.5859375 3.6796875 C-11.34192402 73.56247325 0.707767 144.83267991 42.80078125 202.953125 C45.11433638 206.04021725 47.54269769 209.02603413 50 212 C50.72316406 212.91265625 51.44632813 213.8253125 52.19140625 214.765625 C58.10802957 222.17463452 64.48736017 229.11762588 71 236 C71.63808594 236.680625 72.27617188 237.36125 72.93359375 238.0625 C77.0300288 242.30628883 81.52905979 245.99310371 86.125 249.68359375 C87.9759966 251.17495378 89.81090849 252.68661746 91.625 254.22265625 C112.00305337 271.41663878 136.25635605 284.6368993 161.06860352 294.18994141 C163 295 163 295 164 296 C164.08843793 298.44830426 164.11528752 300.86820599 164.09765625 303.31640625 C164.09553383 304.41298805 164.09553383 304.41298805 164.09336853 305.53172302 C164.08775408 307.87535632 164.07519922 310.21889539 164.0625 312.5625 C164.05748686 314.14778508 164.05292363 315.73307166 164.04882812 317.31835938 C164.03777997 321.2122761 164.02050572 325.10612205 164 329 C162.53566528 329.57790283 162.53566528 329.57790283 161.04174805 330.16748047 C136.72198572 339.80283128 114.55698963 351.71589382 94 368 C93.0409375 368.74636719 92.081875 369.49273438 91.09375 370.26171875 C38.20982351 412.3355485 4.67571061 475.02813957 -3.44140625 541.87109375 C-4.23659161 548.91024688 -4.759948 555.91846595 -5 563 C-5.04125 564.134375 -5.0825 565.26875 -5.125 566.4375 C-5.46926461 585.71631834 -2.99775063 604.99426098 0 624 C-3.85543799 622.41529013 -6.27694154 619.9581708 -9.19238281 617.01879883 C-9.69705582 616.51281158 -10.20172882 616.00682434 -10.72169495 615.48550415 C-12.38681876 613.81389787 -14.04484788 612.13542741 -15.703125 610.45703125 C-16.86600366 609.2878761 -18.02940303 608.11923866 -19.19329834 606.95109558 C-22.2588443 603.87224881 -25.31878415 600.78789539 -28.37713623 597.7019043 C-33.25623405 592.77971586 -38.14191984 587.8640921 -43.03108978 582.95191002 C-44.72836499 581.24451345 -46.42212307 579.53368657 -48.11553955 577.82246399 C-49.17358423 576.75757955 -50.23174496 575.69281039 -51.29003906 574.62817383 C-52.65760345 573.2482299 -52.65760345 573.2482299 -54.05279541 571.84040833 C-56.19370707 569.7309214 -58.41884949 567.75601629 -60.69889832 565.79812622 C-65.87762192 561.30542796 -70.68752332 556.45266197 -75.52758789 551.60180664 C-76.56152609 550.56922638 -77.59567627 549.53685834 -78.63002014 548.50468445 C-81.41738157 545.72185059 -84.20160816 542.93590057 -86.98511434 540.14921117 C-89.91113313 537.22064447 -92.83960941 534.29453677 -95.76768494 531.36802673 C-100.68261551 526.45491079 -105.59544466 521.53970096 -110.50708008 516.62329102 C-116.16968912 510.95524072 -121.83589137 505.29080163 -127.50397307 499.62822443 C-132.38758157 494.74916721 -137.269222 489.86814733 -142.14924997 484.98550886 C-145.05635084 482.07685629 -147.96410566 479.16886611 -150.87364388 476.26265144 C-153.61005 473.5291534 -156.3439613 470.79318353 -159.07604027 468.05536079 C-160.07363825 467.05645088 -161.07206893 466.0583717 -162.07143402 465.06122971 C-167.07188741 460.07086757 -171.96246372 455.05963444 -176.51120663 449.65073299 C-178.00501285 447.99444189 -179.56762178 446.61670544 -181.30859375 445.2265625 C-185.96263715 441.44564792 -190.04797557 437.99453975 -190.875 431.7890625 C-191.0974594 427.13768465 -190.63063794 422.6037566 -190 418 C-189.91733887 417.30825684 -189.83467773 416.61651367 -189.74951172 415.90380859 C-185.80336848 384.4943332 -167.98828198 355.5873783 -143.1875 336.3125 C-129.67225982 326.54664903 -115.10565263 319.44550092 -99 315.125 C-97.79790894 314.80172729 -97.79790894 314.80172729 -96.5715332 314.47192383 C-92.28334602 313.38375518 -88.46219845 312.75686739 -84 313 C-84 312.34 -84 311.68 -84 311 C-85.50046875 311.05027344 -85.50046875 311.05027344 -87.03125 311.1015625 C-111.06600788 310.4864998 -134.87728709 295.8636899 -152 280 C-152.88171875 279.19949219 -153.7634375 278.39898437 -154.671875 277.57421875 C-176.31898392 257.03635609 -189.53531519 227.33374519 -190.5 197.5625 C-190.55414062 196.85029297 -190.60828125 196.13808594 -190.6640625 195.40429688 C-190.77938056 190.86982608 -189.94359687 188.42563862 -186.96875 184.96484375 C-185.66584738 183.62349429 -184.34210176 182.30212768 -183 181 C-182.35224609 180.3407251 -181.70449219 179.6814502 -181.03710938 179.00219727 C-178.37555722 176.30345972 -175.66687864 173.65410318 -172.9609375 171 C-171.95933594 170.01 -171.95933594 170.01 -170.9375 169 C-170.34839844 168.4225 -169.75929688 167.845 -169.15234375 167.25 C-167.33892757 165.35430541 -165.63555147 163.42178235 -163.92930603 161.43128967 C-159.80368943 156.70761653 -155.4175987 152.27715469 -150.97875977 147.84936523 C-150.103013 146.97186615 -149.22726624 146.09436707 -148.32498169 145.1902771 C-145.94457046 142.80624309 -143.56196234 140.42444995 -141.17814755 138.04382205 C-138.66998679 135.53821375 -136.16429031 133.03014289 -133.65818787 130.5224762 C-129.45124778 126.31372279 -125.24221749 122.10706841 -121.03198242 117.90161133 C-116.18190535 113.05697525 -111.33544092 108.20874758 -106.49083668 103.35863918 C-102.31241236 99.17565981 -98.13202114 94.99465363 -93.95001453 90.8152557 C-91.4605479 88.32733872 -88.97173942 85.83877342 -86.4847126 83.34841728 C-83.70956079 80.56980931 -80.93028938 77.79534403 -78.15063477 75.02124023 C-77.33947708 74.20805832 -76.5283194 73.3948764 -75.69258118 72.55705261 C-71.53585582 68.41561777 -67.29394351 64.4543759 -62.84879589 60.62504482 C-60.0128413 58.13231248 -57.35913803 55.47529469 -54.70751953 52.78930664 C-53.8473951 51.92458237 -53.8473951 51.92458237 -52.96989441 51.04238892 C-51.74172822 49.80714022 -50.51469867 48.57076051 -49.28873062 47.33333015 C-47.34964507 45.37668853 -45.40689394 43.42375434 -43.46310425 41.4717865 C-37.94309009 35.92744481 -32.42893553 30.37730111 -26.91894531 24.82299805 C-23.53583133 21.41318578 -20.14792975 18.00819251 -16.75698471 14.60616875 C-15.46724661 13.31021043 -14.17941066 12.01235628 -12.89349747 10.71260262 C-11.10551807 8.90552205 -9.31156914 7.10457945 -7.51611328 5.30493164 C-6.98417862 4.76423538 -6.45224396 4.22353912 -5.90419006 3.66645813 C-2.22789954 0 -2.22789954 0 0 0 Z " fill="#156EE3" transform="translate(859,200)"/>
<path d="M0 0 C1.39120471 0.00015906 2.78241534 0.00585033 4.17358398 0.01586914 C4.90463852 0.01728409 5.63569305 0.01869904 6.38890076 0.02015686 C8.73253406 0.02577131 11.07607313 0.03832617 13.41967773 0.05102539 C15.00496282 0.05603853 16.59024939 0.06060176 18.17553711 0.06469727 C22.06945383 0.07574542 25.96329979 0.09301967 29.85717773 0.11352539 C30.24244629 1.08974854 30.62771484 2.06597168 31.0246582 3.07177734 C40.66000901 27.39153967 52.57307156 49.55653576 68.85717773 70.11352539 C69.60354492 71.07258789 70.34991211 72.03165039 71.11889648 73.01977539 C113.19272623 125.90370188 175.88531731 159.43781478 242.72827148 167.55493164 C249.76742462 168.350117 256.77564369 168.87347339 263.85717773 169.11352539 C264.99155273 169.15477539 266.12592773 169.19602539 267.29467773 169.23852539 C286.57349607 169.58279 305.85143871 167.11127602 324.85717773 164.11352539 C323.27246786 167.96896338 320.81534853 170.39046693 317.87597656 173.3059082 C317.36998932 173.81058121 316.86400208 174.31525421 316.34268188 174.83522034 C314.67107561 176.50034415 312.99260515 178.15837327 311.31420898 179.81665039 C310.14505383 180.97952905 308.97641639 182.14292842 307.80827332 183.30682373 C304.72942655 186.37236969 301.64507313 189.43230954 298.55908203 192.49066162 C293.6368936 197.36975944 288.72126983 202.25544524 283.80908775 207.14461517 C282.10169119 208.84189038 280.39086431 210.53564846 278.67964172 212.22906494 C277.61475728 213.28710962 276.54998812 214.34527035 275.48535156 215.40356445 C274.10540764 216.77112885 274.10540764 216.77112885 272.69758606 218.1663208 C270.58809913 220.30723246 268.61319403 222.53237488 266.65530396 224.81242371 C262.16260569 229.99114731 257.3098397 234.80104871 252.45898438 239.64111328 C251.42640412 240.67505148 250.39403607 241.70920166 249.36186218 242.74354553 C246.57902832 245.53090696 243.79307831 248.31513355 241.0063889 251.09863973 C238.07782221 254.02465852 235.1517145 256.9531348 232.22520447 259.88121033 C227.31208853 264.7961409 222.39687869 269.70897005 217.48046875 274.62060547 C211.81241846 280.28321451 206.14797937 285.94941676 200.48540217 291.61749846 C195.60634495 296.50110696 190.72532506 301.38274739 185.84268659 306.26277536 C182.93403402 309.16987623 180.02604384 312.07763105 177.11982918 314.98716927 C174.38633113 317.72357539 171.65036127 320.45748669 168.91253853 323.18956566 C167.91362861 324.18716364 166.91554944 325.18559432 165.91840744 326.18495941 C160.9280453 331.18541281 155.91681218 336.07598911 150.50791073 340.62473202 C148.85161962 342.11853825 147.47388318 343.68114717 146.08374023 345.42211914 C142.30282566 350.07616254 138.85171748 354.16150096 132.64624023 354.98852539 C127.99486239 355.2109848 123.46093434 354.74416333 118.85717773 354.11352539 C118.16543457 354.03086426 117.47369141 353.94820313 116.76098633 353.86303711 C85.35151093 349.91689387 56.44455604 332.10180737 37.16967773 307.30102539 C27.40382677 293.78578521 20.30267866 279.21917802 15.98217773 263.11352539 C15.65890503 261.91143433 15.65890503 261.91143433 15.32910156 260.68505859 C14.24093291 256.39687141 13.61404513 252.57572384 13.85717773 248.11352539 C13.19717773 248.11352539 12.53717773 248.11352539 11.85717773 248.11352539 C11.89069336 249.11383789 11.92420898 250.11415039 11.95874023 251.14477539 C11.34367753 275.17953327 -3.27913236 298.99081248 -19.14282227 316.11352539 C-19.94333008 316.99524414 -20.74383789 317.87696289 -21.56860352 318.78540039 C-42.10646617 340.43250931 -71.80907708 353.64884058 -101.58032227 354.61352539 C-102.2925293 354.66766602 -103.00473633 354.72180664 -103.73852539 354.77758789 C-108.27299619 354.89290595 -110.71718364 354.05712226 -114.17797852 351.08227539 C-115.51932798 349.77937277 -116.84069459 348.45562715 -118.14282227 347.11352539 C-118.80209717 346.46577148 -119.46137207 345.81801758 -120.140625 345.15063477 C-122.83936254 342.48908261 -125.48871908 339.78040403 -128.14282227 337.07446289 C-129.13282227 336.07286133 -129.13282227 336.07286133 -130.14282227 335.05102539 C-130.72032227 334.46192383 -131.29782227 333.87282227 -131.89282227 333.26586914 C-133.78851685 331.45245296 -135.72103991 329.74907686 -137.71153259 328.04283142 C-142.43520573 323.91721482 -146.86566757 319.53112409 -151.29345703 315.09228516 C-152.17095612 314.21653839 -153.0484552 313.34079163 -153.95254517 312.43850708 C-156.33657917 310.05809585 -158.71837232 307.67548773 -161.09900022 305.29167295 C-163.60460851 302.78351218 -166.11267937 300.27781571 -168.62034607 297.77171326 C-172.82909947 293.56477317 -177.03575386 289.35574288 -181.24121094 285.14550781 C-186.08584701 280.29543074 -190.93407469 275.44896631 -195.78418308 270.60436207 C-199.96716245 266.42593775 -204.14816864 262.24554653 -208.32756656 258.06353992 C-210.81548355 255.57407329 -213.30404884 253.08526481 -215.79440498 250.59823799 C-218.57301295 247.82308618 -221.34747824 245.04381477 -224.12158203 242.26416016 C-224.93476395 241.45300247 -225.74794586 240.64184479 -226.58576965 239.80610657 C-230.7272045 235.64938121 -234.68844636 231.4074689 -238.51777744 226.96232128 C-241.01050979 224.12636669 -243.66752757 221.47266342 -246.35351562 218.82104492 C-247.2182399 217.96092049 -247.2182399 217.96092049 -248.10043335 217.0834198 C-249.33568204 215.85525361 -250.57206176 214.62822406 -251.80949211 213.40225601 C-253.76613374 211.46317046 -255.71906793 209.52041933 -257.67103577 207.57662964 C-263.21537746 202.05661548 -268.76552116 196.54246092 -274.31982422 191.0324707 C-277.72963648 187.64935672 -281.13462976 184.26145514 -284.53665352 180.8705101 C-285.83261184 179.580772 -287.13046598 178.29293605 -288.43021965 177.00702286 C-290.23730022 175.21904346 -292.03824282 173.42509453 -293.83789062 171.62963867 C-294.37858688 171.09770401 -294.91928314 170.56576935 -295.47636414 170.01771545 C-299.14282227 166.34142493 -299.14282227 166.34142493 -299.14282227 164.11352539 C-297.32137695 164.40356445 -297.32137695 164.40356445 -295.46313477 164.69946289 C-225.58034902 175.45544941 -154.31014235 163.40575839 -96.18969727 121.31274414 C-93.10260502 118.99918901 -90.11678814 116.5708277 -87.14282227 114.11352539 C-86.23016602 113.39036133 -85.31750977 112.66719727 -84.37719727 111.92211914 C-76.96818775 106.00549582 -70.02519638 99.62616522 -63.14282227 93.11352539 C-62.46219727 92.47543945 -61.78157227 91.83735352 -61.08032227 91.17993164 C-56.83653343 87.08349659 -53.14971855 82.58446561 -49.45922852 77.98852539 C-47.96786848 76.13752879 -46.45620481 74.3026169 -44.92016602 72.48852539 C-27.72618349 52.11047202 -14.50592296 27.85716934 -4.95288086 3.04492188 C-3.64726117 -0.0680249 -3.61594779 0.13061569 0 0 Z " fill="#156EE3" transform="translate(499.142822265625,-0.113525390625)"/>
</svg>
